<?xml version="1.0" encoding="iso-8859-1"?>
<!-- Uploaded to: SVG Repo, www.svgrepo.com, Generator: SVG Repo Mixer Tools -->
<!DOCTYPE svg PUBLIC "-//W3C//DTD SVG 1.1//EN" "http://www.w3.org/Graphics/SVG/1.1/DTD/svg11.dtd">
<svg fill="#000000" height="800px" width="800px" version="1.1" id="Capa_1" xmlns="http://www.w3.org/2000/svg" xmlns:xlink="http://www.w3.org/1999/xlink" 
	 viewBox="0 0 397.744 397.744" xml:space="preserve">
<path d="M161.112,157.166l0.996-0.996l-0.997-0.997c-3.905-3.905-3.905-10.237,0-14.142c3.906-3.906,10.236-3.906,14.143,0
	l5.14,5.139h36.961l5.139-5.139c3.904-3.905,10.237-3.906,14.142,0c3.906,3.905,3.906,10.236,0.001,14.142l-0.997,0.997l0.997,0.997
	c3.905,3.905,3.905,10.237,0,14.143c-1.953,1.953-4.512,2.929-7.071,2.929s-5.118-0.976-7.071-2.929l-5.139-5.139h-36.962
	l-5.14,5.139c-3.904,3.906-10.237,3.905-14.142,0C157.206,167.403,157.206,161.071,161.112,157.166z M119.294,135.948
	c-5.31,1.519-8.383,7.054-6.864,12.364l1.998,6.988l-17.938,32.315l-6.989,2c-5.311,1.519-8.384,7.055-6.864,12.365
	c1.519,5.31,7.06,8.381,12.364,6.864l1.356-0.388l0.389,1.357c1.257,4.391,5.259,7.251,9.609,7.251c0.91,0,1.837-0.125,2.756-0.388
	c5.31-1.52,8.383-7.056,6.863-12.366l-1.999-6.985l17.939-32.318l6.988-1.999c5.311-1.519,8.383-7.055,6.864-12.364
	c-1.519-5.31-7.052-8.381-12.364-6.864l-1.356,0.388l-0.388-1.355C130.139,137.502,124.606,134.428,119.294,135.948z
	 M144.909,110.034l-7.131,7.13c-3.906,3.905-3.906,10.237-0.001,14.143c3.904,3.905,10.237,3.907,14.142,0.001l11.274-11.273h71.36
	l11.272,11.272c1.953,1.953,4.512,2.929,7.071,2.929s5.118-0.976,7.071-2.929c3.905-3.905,3.905-10.237,0-14.143l-7.131-7.13
	l7.131-7.131c3.905-3.906,3.905-10.237-0.001-14.142c-3.904-3.905-10.237-3.905-14.142,0l-11.272,11.273h-71.36L151.92,88.76
	c-3.906-3.905-10.236-3.905-14.143,0c-3.905,3.905-3.905,10.237,0,14.142L144.909,110.034z M251.981,150.644
	c-1.519,5.31,1.554,10.846,6.864,12.365l6.986,1.999l17.94,32.318l-1.998,6.986c-1.519,5.31,1.555,10.846,6.864,12.365
	c0.919,0.263,1.845,0.388,2.755,0.388c4.351,0,8.354-2.862,9.609-7.252l0.388-1.355l1.354,0.388
	c5.312,1.521,10.847-1.554,12.365-6.863c1.52-5.31-1.554-10.846-6.863-12.365l-6.99-2l-17.938-32.314l1.999-6.987
	c1.52-5.31-1.554-10.846-6.863-12.365c-5.313-1.521-10.846,1.553-12.365,6.863l-0.388,1.356l-1.356-0.388
	C259.037,142.258,253.5,145.333,251.981,150.644z M157.231,41.642C157.231,18.681,175.912,0,198.873,0
	c22.962,0,41.643,18.681,41.643,41.642s-18.681,41.642-41.643,41.642C175.912,83.284,157.231,64.604,157.231,41.642z
	 M177.231,41.642c0,11.934,9.708,21.642,21.642,21.642s21.643-9.708,21.643-21.642S210.806,20,198.873,20
	S177.231,29.708,177.231,41.642z M237.34,318.148c3.473-4.294,2.808-10.591-1.487-14.064c-4.292-3.473-10.591-2.807-14.063,1.487
	l-0.292,0.362l-0.294-0.362c-3.473-4.294-9.771-4.958-14.063-1.486c-4.294,3.474-4.959,9.77-1.485,14.064l5.843,7.224v48.858
	l-5.843,7.224c-3.474,4.294-2.809,10.591,1.485,14.064c1.852,1.497,4.074,2.226,6.283,2.226c2.915,0,5.805-1.269,7.78-3.711
	l0.293-0.362l0.293,0.362c3.475,4.294,9.771,4.958,14.063,1.487c4.295-3.473,4.96-9.77,1.487-14.064l-5.843-7.224v-48.859
	L237.34,318.148z M235.142,247.356c4.584-3.081,5.803-9.294,2.722-13.877c-3.082-4.585-9.299-5.801-13.878-2.721l-2.489,1.673
	l-2.49-1.673c-4.582-3.079-10.798-1.862-13.878,2.722c-3.081,4.583-1.862,10.797,2.722,13.877l3.646,2.451v19.751l-3.646,2.451
	c-4.584,3.081-5.803,9.294-2.722,13.878c3.082,4.584,9.296,5.801,13.878,2.722l2.49-1.673l2.489,1.673
	c1.712,1.151,3.65,1.702,5.569,1.702c3.218,0,6.378-1.551,8.309-4.422c3.081-4.584,1.862-10.797-2.722-13.878l-3.646-2.451v-19.752
	L235.142,247.356z M259.969,209.441l-7.131-7.132l7.131-7.13c3.905-3.905,3.905-10.237,0-14.142c-3.906-3.906-10.236-3.906-14.143,0
	l-11.272,11.272h-71.36l-11.274-11.273c-3.904-3.904-10.237-3.904-14.142,0.001c-3.905,3.906-3.905,10.237,0.001,14.143l7.131,7.13
	l-7.132,7.131c-3.905,3.905-3.905,10.237,0,14.142c3.906,3.906,10.236,3.906,14.143,0l11.274-11.274h71.359l11.272,11.274
	c1.952,1.953,4.512,2.929,7.071,2.929c2.559,0,5.118-0.976,7.07-2.928C263.873,219.678,263.874,213.346,259.969,209.441z
	 M319.392,51.478h-43.483c-5.522,0-10,4.477-10,10s4.478,10,10,10h43.483c8.021,0,14.547,6.526,14.547,14.548v241.04
	c0,8.022-6.525,14.548-14.547,14.548h-53.819c-5.522,0-10,4.477-10,10s4.478,10,10,10h53.819c19.049,0,34.547-15.498,34.547-34.548
	V86.025C353.939,66.976,338.441,51.478,319.392,51.478z M189.897,247.357c4.584-3.081,5.803-9.294,2.722-13.877
	c-3.081-4.585-9.294-5.802-13.878-2.722l-2.49,1.674l-2.49-1.674c-4.582-3.079-10.798-1.862-13.878,2.722
	c-3.081,4.583-1.862,10.797,2.722,13.877l3.646,2.451v19.751l-3.646,2.451c-4.584,3.081-5.803,9.294-2.722,13.878
	c3.082,4.584,9.296,5.801,13.878,2.722l2.49-1.674l2.49,1.674c1.712,1.15,3.65,1.701,5.569,1.701c3.218,0,6.379-1.551,8.309-4.423
	c3.081-4.584,1.862-10.797-2.722-13.878l-3.646-2.451v-19.751L189.897,247.357z M132.171,341.613H78.353
	c-8.022,0-14.549-6.526-14.549-14.548V86.025c0-8.021,6.526-14.548,14.549-14.548h43.481c5.522,0,10-4.477,10-10s-4.478-10-10-10
	H78.353c-19.051,0-34.549,15.498-34.549,34.548v241.04c0,19.05,15.498,34.548,34.549,34.548h53.817c5.522,0,10-4.477,10-10
	S137.693,341.613,132.171,341.613z M192.094,318.149c3.474-4.294,2.809-10.59-1.485-14.064c-4.295-3.472-10.591-2.809-14.063,1.486
	l-0.294,0.363l-0.294-0.363c-3.474-4.294-9.771-4.958-14.063-1.486c-4.294,3.474-4.959,9.77-1.485,14.064l5.843,7.224v48.858
	l-5.843,7.224c-3.474,4.294-2.809,10.591,1.485,14.064c4.295,3.473,10.591,2.808,14.063-1.486l0.294-0.363l0.294,0.363
	c1.976,2.443,4.865,3.711,7.78,3.711c2.209,0,4.433-0.729,6.283-2.226c4.294-3.473,4.959-9.77,1.485-14.064l-5.843-7.224v-48.858
	L192.094,318.149z"/>
</svg>